<?xml version="1.0" encoding="UTF-8"?>
<svg id="Layer_2" data-name="Layer 2" xmlns="http://www.w3.org/2000/svg" viewBox="0 0 745.14 577.56">
  <g id="Layer_1-2" data-name="Layer 1">
    <g>
      <path d="M100.62,500.42c-55.5-24.44-86.14-75.46-95.18-133.51C-2.22,317.84-.09,258.06,1.7,207.99c2.37-66.31,15.9-129.02,73.11-169.76C118.01,7.45,165.4,4.42,216.82,2.33,299.76-1.05,383.06-.11,466.12,1.16c91.09,1.39,184.03-8.6,242.85,74.53,34.67,49,33.61,106.25,35.13,163.51,2.31,87.03,7.58,191.82-73.01,248.14-40.86,28.55-84.05,33.67-132.7,35.9-106.12,4.87-213.04,1.45-319.24.1-23.77,11.79-66.28,53.25-92.12,54.19-13.68.5-25.03-7.57-26.28-21.35-.72-8,1.36-53.39-.14-55.77ZM225.28,30.28c-40.85,1.39-88.5,3.76-124.37,24.54C45.35,86.99,33.52,141.41,30.83,201.07c-2.11,46.78-4.44,107.36,1.36,153.21,6.25,49.37,26.77,93.2,73.25,116.59,6.94,3.49,14.79,5.06,20.89,9.3,5.54,8.71.81,48.14,2.38,61.04.16,1.27-.01,2.56,1.14,3.49,3.21,2.29,11.95-4.09,15.13-5.95,12.92-7.54,60.49-43.97,69.52-45.36,3.57-.55,8.94-.17,12.74-.06,101.06,3.05,211.59,6.67,312.41,1.19,100.38-5.45,162.11-37.75,174.18-143.57,6.08-53.31,6.12-158.94-6.4-210.36-20.72-85.13-93.13-111.07-174.77-110.71-102.08,2.33-205.48-3.07-307.4.39Z"/>
      <path d="M364.22,371.13c2.01,1.34,6.19-13.2,6.65-14.73,7.82-26.09,10.44-79.46,32.41-95.89,14.84-11.1,37.52-1.09,46.63-9.21,2.58-2.3,7.71-14.11,9.7-18.07,7.39-14.69,13.53-31.57,21.29-45.8,2.53-4.64,4.91-8.86,10.31-10.55l162.02.05c1.2.95,2.67,2.26,3.36,3.59,2.07,4.04,3.19,20.73-.14,24.35-.73.8-4.91,2.34-6.19,2.52-41.07.93-82.56-.95-123.46-.03-7.34.16-14.62,2.61-22.59.23l-29.08,59.43c-7.09,11.42-14.01,16.19-27.73,17.53-19.17,1.88-25.56-5.98-32.75,16.02-8.06,24.7-13.5,88.29-34.9,102.65-8.56,5.75-20.08,6.32-29.41,1.81-16.96-8.2-22.68-49.75-25.56-66.94-9.63-57.53-13.31-117.55-23.84-174.68-2.61-14.14-5.97-32.17-16.72-42.32-6.98-1.16-14.94,28.01-16.16,33.33-12.14,52.72-12.84,126.34-35.7,174.48-13.23,27.85-39.67,29.78-54.4,2.26-16.66-31.12-13.15-72.7-25.87-105.26-2.97-2.25-18.92,40.13-20.75,43.44-14.01,25.41-31.66,30.65-60.29,28.08-4.84-.43-9.56-2.69-10.77-7.79-6.96-29.32,15.1-17.71,30.83-22.05,24.56-6.77,21.31-61.98,50.53-72.2,26.53-9.28,38.45,15.05,43.92,36.04,7.03,27,6.43,56.75,17.77,82.52.33,1.43,1.54.84,2.4.15,4.14-3.27,7.68-20.02,8.97-25.71,11.32-50.13,13.83-139.56,38.61-180.83,14.52-24.19,40.59-27.26,58.27-4.22,25.75,33.55,30.38,138.24,36.48,182.93,3.82,28.03,6.66,58.45,16.18,84.87Z"/>
      <g>
        <path d="M473.46,318.39l174.48-.2c9.83.92,8.7,18.67,7.57,25.79-.71,4.49-3.16,5.93-7.48,6.43-15.75,1.82-37.12-.36-53.71-.06-39.81.72-79.9,2.03-119.86,1.09-5.47-.76-8.23-2.96-8.87-8.51-.9-7.7-2.45-23.89,7.88-24.54Z"/>
        <path d="M520.13,248.13l154.61-.26c9.67.95,8.71,17.59,7.58,24.65-.63,3.92-3.43,7.1-7.45,7.62-11.01,1.42-26.82-.37-38.61-.06-39.79,1.02-79.88,1.74-119.85,1.05-15.41-2.02-14.2-34.56,3.72-33Z"/>
        <path d="M511.89,388.67l99.71.02c9.92.86,9.18,18.42,7.6,25.43-1.28,5.65-6.9,7.21-12.01,7.72-28.81,2.86-62.47-1.87-91.78-.26-15.4-.16-14.72-30.44-3.53-32.9Z"/>
      </g>
    </g>
  </g>
</svg>